<?xml version="1.0" encoding="utf-8"?>
<!-- Generator: Adobe Illustrator 27.9.2, SVG Export Plug-In . SVG Version: 6.00 Build 0)  -->
<svg version="1.1" id="Ebene_1" xmlns="http://www.w3.org/2000/svg" xmlns:xlink="http://www.w3.org/1999/xlink" x="0px" y="0px"
	 viewBox="0 0 500 500" enable-background="new 0 0 500 500" xml:space="preserve">
<path id="AT" fill="none" stroke="#FFFFFF" stroke-width="5" stroke-linecap="round" stroke-linejoin="round" d="M479.2,152.8
	l-4.9,17.2l0.7,5.7l8.5,20.7l12.2,20.7l-3.3,4.9l-3.3,13.7l3.6,14.1L472,252l-13.5-6.6l-6.9,10.1l13.8,4.9l2.6,7.9l-2.6,10.1
	l-11.8,8.4l2,10.6l-2.6,4.9l5.9,11.5l-1.6,12.8l-13.5,3.5l-9.5,12.3l-6.9,6.6l-0.7,13.7l-12.8-3.5l-8.5,1.3l-12.2,7.9l-14.8-1.3
	l-13.8,1.3l-10.2,4.9l-5.3,9.3l-16.1,8.4l-26.6-4.9l-26.6-6.6l-13.8-3.5l-21.3-2.2l-45.6-10.6l-5.9-3.5l-16.4-25.1v-16.3l-25,10.6
	l-16.4-1.3l-18.1,2.2l-7.6,4.4l-6.2,15.9l-5.9,2.6l-11.2-2.6l-4.9-5.7l-16.1-2.2l-2.6-10.6l-4.3-2.2L48,342.8l-12.2-2.6l-7.9-5.7
	l-2-7.1l-17.4-5.7l1.6-5.7l-5.9-18.1l5.3-21.6l-4.9-4.9l9.2-3.5l3.6-3.5l18.7,11.5l4.9,10.1l6.2,2.2l-0.7,9.3l8.5-3.5l5.3-11.5
	l1-13.7l14.8-0.9l14.4,2.6l7.6,13.7l20.4-3.5l5.9-6.6l20.7-10.6l30.2-3.5l0.7-10.1l10.5,2.2l7.9,5.7l13.5-3.5l5.9,3.5l1,7.9l6.2,6.6
	l9.2,2.6l1.6-10.6l-1.6-13.7l-9.2-2.2l3.3-9.3l-0.7-9.3l-13.5-19.8l3.3-9.3L230,188l15.4-5.7l5.3-7.1l3.6-20.7l12.2,6.6l6.9-6.6
	l1-19.8l11.8,8.4l4.3,9.3l20.7,2.6l7.6-4.9l13.5,2.6l0.7-7.9l6.9-11.5h6.2l1.6-22.9l6.2-1.3l8.5,5.7l7.6-2.6l25.6,12.3l7.9-0.9
	l16.1,12.3l20.4,1.3l6.2-6.6l27.3,10.6L479.2,152.8L479.2,152.8z"/>
</svg>
