<?xml version="1.0" encoding="utf-8"?>
<!-- Generator: Adobe Illustrator 27.9.2, SVG Export Plug-In . SVG Version: 6.00 Build 0)  -->
<svg version="1.1" id="Layer_1" xmlns="http://www.w3.org/2000/svg" xmlns:xlink="http://www.w3.org/1999/xlink" x="0px" y="0px"
	 viewBox="0 0 404.9 98.8" style="enable-background:new 0 0 404.9 98.8;" xml:space="preserve">
<g>
	<path style="fill:#00366D;" d="M64.9,86L0,69.5L16.5,4.6l64.9,16.5L64.9,86z M5.9,66l55.5,14.1l14.1-55.5L20,10.5L5.9,66z"/>
	<path style="fill:#FFD200;" d="M66.1,87l-48.2,0l0-48.2l48.2,0L66.1,87z M22.1,82.7l39.7,0l0-39.7l-39.7,0L22.1,82.7z"/>
	<path style="fill:#0070B9;" d="M66,87.1L31.6,98.8l-11-32.1L55.1,55L66,87.1z M34.3,93.4l26.3-9l-8.2-24l-26.3,9L34.3,93.4z"/>
</g>
<g>
	<g>
		<polygon style="fill:#FFFFFF;" points="226.5,44.6 240.5,44.6 240.5,38.7 219.8,38.7 219.8,66.3 226.5,66.3 226.5,56.5 
			238.9,56.5 238.9,50.5 226.5,50.5 		"/>
		<path style="fill:#FFFFFF;" d="M252.1,38.7l-12.4,27.6h7.1l2.5-5.9h11.5l2.6,5.9h7.2l-12.5-27.6H252.1z M258.4,54.7h-6.6l3.3-7.7
			L258.4,54.7z"/>
		<path style="fill:#FFFFFF;" d="M281.6,45.5c1.2-0.7,2.7-1,4.2-1c2.4,0,4.5,0.9,6.1,2.7l0.7,0.7l4.5-4.2l-0.6-0.7
			c-1.3-1.5-2.9-2.7-4.8-3.5c-1.9-0.8-3.9-1.2-6.1-1.2c-2.7,0-5.3,0.6-7.5,1.8c-2.2,1.2-4,2.9-5.3,5.1c-1.3,2.1-1.9,4.6-1.9,7.3
			c0,2.7,0.6,5.1,1.9,7.3c1.3,2.1,3.1,3.9,5.3,5.1c2.2,1.2,4.7,1.8,7.5,1.8c2.2,0,4.3-0.4,6.2-1.2c1.9-0.8,3.5-2,4.8-3.5l0.6-0.7
			l-4.5-4.3l-0.7,0.7c-1.7,1.8-3.7,2.7-6.1,2.7c-1.6,0-3-0.3-4.3-1c-1.2-0.7-2.2-1.6-2.9-2.8c-0.7-1.2-1-2.6-1-4.2
			c0-1.6,0.4-3,1-4.2C279.4,47.1,280.4,46.2,281.6,45.5z"/>
		<rect x="301.2" y="38.7" style="fill:#FFFFFF;" width="6.7" height="27.6"/>
		<polygon style="fill:#FFFFFF;" points="321.5,38.7 314.8,38.7 314.8,66.3 334.9,66.3 334.9,60.3 321.5,60.3 		"/>
		<rect x="338.6" y="38.7" style="fill:#FFFFFF;" width="6.7" height="27.6"/>
		<polygon style="fill:#FFFFFF;" points="348.8,44.7 357.3,44.7 357.3,66.3 364,66.3 364,44.7 372.5,44.7 372.5,38.7 348.8,38.7 		
			"/>
		<polygon style="fill:#FFFFFF;" points="395.1,38.7 388.1,50.3 381.1,38.7 373.7,38.7 384.6,56.6 384.6,66.3 391.3,66.3 
			391.3,56.5 402.1,38.7 		"/>
	</g>
	<g>
		<polygon style="fill:#FFFFFF;" points="96.9,56.5 109.3,56.5 109.3,50.5 96.9,50.5 96.9,44.6 110.9,44.6 110.9,38.7 90.2,38.7 
			90.2,66.3 96.9,66.3 		"/>
		<rect x="115.4" y="38.7" style="fill:#FFFFFF;" width="6.7" height="27.6"/>
		<path style="fill:#FFFFFF;" d="M135.7,58.8h4.8c0.2,0,0.3,0,0.5,0l5.2,7.5h7.5l-6.3-9c1.4-0.7,2.5-1.7,3.4-3
			c1-1.6,1.6-3.4,1.6-5.5c0-2.1-0.5-3.9-1.5-5.4c-1-1.5-2.4-2.7-4.2-3.5c-1.8-0.8-3.9-1.2-6.2-1.2h-11.5v27.6h6.7V58.8z M145.6,48.8
			c0,1.3-0.4,2.3-1.3,3c-0.9,0.7-2.3,1.1-4.1,1.1h-4.6v-8.3h4.6c1.8,0,3.2,0.4,4.1,1.1C145.2,46.5,145.6,47.5,145.6,48.8z"/>
		<path style="fill:#FFFFFF;" d="M170.2,60c-0.8,0.5-2,0.8-3.7,0.8c-1.4,0-2.9-0.2-4.3-0.7c-1.4-0.5-2.6-1.1-3.6-1.9l-1-0.8
			l-2.5,5.5l0.6,0.5c1.2,1,2.8,1.8,4.7,2.4c1.9,0.6,4,0.9,6,0.9c2.4,0,4.4-0.4,6.1-1.1c1.7-0.8,3.1-1.8,3.9-3.1
			c0.9-1.3,1.3-2.8,1.3-4.4c0-1.9-0.5-3.5-1.6-4.6c-1-1.1-2.2-1.9-3.5-2.4c-1.3-0.5-2.9-1-4.8-1.4c-1.4-0.3-2.4-0.6-3.2-0.9
			c-0.7-0.2-1.2-0.5-1.7-0.9c-0.3-0.3-0.5-0.6-0.5-1.1c0-0.7,0.3-1.3,1-1.7c1.2-0.8,4-1.1,6.9-0.3c1.1,0.3,2.2,0.8,3.3,1.4l1,0.6
			l2.2-5.5l-0.7-0.4c-1.2-0.8-2.6-1.4-4.2-1.8c-3.9-1-8.1-0.8-11,0.5c-1.7,0.8-3,1.8-3.9,3.1c-0.9,1.3-1.3,2.8-1.3,4.4
			c0,1.9,0.5,3.5,1.5,4.7c1,1.1,2.1,1.9,3.5,2.5c1.2,0.5,2.9,1,4.9,1.4c1.4,0.3,2.4,0.6,3.2,0.9c0.7,0.2,1.2,0.5,1.6,0.9
			c0.3,0.3,0.5,0.6,0.5,1.1C171.2,58.8,171.1,59.4,170.2,60z"/>
		<polygon style="fill:#FFFFFF;" points="187.3,66.3 194,66.3 194,44.7 202.5,44.7 202.5,38.7 178.8,38.7 178.8,44.7 187.3,44.7 		
			"/>
	</g>
</g>
<g>
	<path style="fill:#FFFFFF;" d="M98.2,77.3c0.8,0.7,1.2,1.8,1.2,3.2v6.4h-1.8v-1.4c-0.3,0.5-0.8,0.9-1.4,1.1
		c-0.6,0.3-1.3,0.4-2.1,0.4c-1.2,0-2.1-0.3-2.8-0.9c-0.7-0.6-1.1-1.3-1.1-2.3c0-0.9,0.3-1.7,1-2.2c0.7-0.6,1.8-0.8,3.2-0.8h3v-0.4
		c0-0.8-0.2-1.5-0.7-1.9c-0.5-0.4-1.2-0.7-2.1-0.7c-0.6,0-1.2,0.1-1.8,0.3c-0.6,0.2-1.1,0.5-1.5,0.8l-0.8-1.4c0.5-0.4,1.2-0.8,2-1
		c0.8-0.2,1.6-0.3,2.4-0.3C96.3,76.2,97.5,76.6,98.2,77.3z M96.3,85c0.5-0.3,0.9-0.8,1.2-1.4v-1.5h-3c-1.6,0-2.4,0.5-2.4,1.6
		c0,0.5,0.2,1,0.6,1.3c0.4,0.3,1,0.5,1.7,0.5C95.2,85.5,95.8,85.4,96.3,85z"/>
	<path style="fill:#FFFFFF;" d="M103,72.1h1.9v14.8H103V72.1z"/>
	<path style="fill:#FFFFFF;" d="M124.5,76.3l-4,10.6h-1.8l-3.1-8l-3.1,8h-1.8l-3.9-10.6h1.8l3.1,8.4l3.2-8.4h1.6l3.1,8.5l3.2-8.5
		H124.5z"/>
	<path style="fill:#FFFFFF;" d="M133.3,77.3c0.8,0.7,1.2,1.8,1.2,3.2v6.4h-1.8v-1.4c-0.3,0.5-0.8,0.9-1.4,1.1
		c-0.6,0.3-1.3,0.4-2.1,0.4c-1.2,0-2.1-0.3-2.8-0.9c-0.7-0.6-1.1-1.3-1.1-2.3c0-0.9,0.3-1.7,1-2.2c0.7-0.6,1.8-0.8,3.2-0.8h3v-0.4
		c0-0.8-0.2-1.5-0.7-1.9s-1.2-0.7-2.1-0.7c-0.6,0-1.2,0.1-1.8,0.3c-0.6,0.2-1.1,0.5-1.5,0.8l-0.8-1.4c0.5-0.4,1.2-0.8,2-1
		c0.8-0.2,1.6-0.3,2.4-0.3C131.4,76.2,132.6,76.6,133.3,77.3z M131.4,85c0.5-0.3,0.9-0.8,1.2-1.4v-1.5h-3c-1.6,0-2.4,0.5-2.4,1.6
		c0,0.5,0.2,1,0.6,1.3c0.4,0.3,1,0.5,1.7,0.5C130.3,85.5,130.9,85.4,131.4,85z"/>
	<path style="fill:#FFFFFF;" d="M147.2,76.3l-5.1,11.6c-0.5,1.1-1,1.8-1.6,2.3c-0.6,0.4-1.3,0.7-2.2,0.7c-0.5,0-1-0.1-1.5-0.2
		c-0.5-0.2-0.9-0.4-1.2-0.7l0.8-1.4c0.5,0.5,1.2,0.8,1.9,0.8c0.5,0,0.9-0.1,1.2-0.4c0.3-0.2,0.6-0.7,0.8-1.3l0.3-0.7L136,76.3h2
		l3.7,8.5l3.7-8.5H147.2z"/>
	<path style="fill:#FFFFFF;" d="M149.4,86.7c-0.8-0.2-1.4-0.5-1.9-0.9l0.8-1.5c0.5,0.3,1,0.6,1.7,0.8c0.7,0.2,1.3,0.3,2,0.3
		c1.7,0,2.5-0.5,2.5-1.4c0-0.3-0.1-0.6-0.3-0.8c-0.2-0.2-0.5-0.3-0.8-0.4c-0.3-0.1-0.8-0.2-1.4-0.3c-0.9-0.1-1.5-0.3-2.1-0.5
		c-0.5-0.2-1-0.5-1.4-0.9c-0.4-0.4-0.6-1-0.6-1.7c0-1,0.4-1.7,1.2-2.3c0.8-0.6,1.9-0.9,3.2-0.9c0.7,0,1.4,0.1,2.1,0.3
		c0.7,0.2,1.3,0.4,1.7,0.7l-0.8,1.5c-0.9-0.6-1.9-0.8-3.1-0.8c-0.8,0-1.4,0.1-1.9,0.4c-0.4,0.3-0.6,0.6-0.6,1.1
		c0,0.3,0.1,0.6,0.4,0.8c0.2,0.2,0.5,0.3,0.9,0.4c0.4,0.1,0.8,0.2,1.5,0.3c0.9,0.1,1.5,0.3,2.1,0.5c0.5,0.2,1,0.4,1.3,0.8
		c0.4,0.4,0.6,1,0.6,1.7c0,1-0.4,1.7-1.2,2.3c-0.8,0.6-1.9,0.8-3.3,0.8C151,87,150.2,86.9,149.4,86.7z"/>
	<path style="fill:#FFFFFF;" d="M166.4,75.4v0.9h3.1v1.6h-3v9h-1.9v-9h-1.8v-1.6h1.8v-0.9c0-1.1,0.3-1.9,0.9-2.5s1.5-0.9,2.6-0.9
		c0.4,0,0.8,0.1,1.2,0.2c0.4,0.1,0.7,0.3,1,0.5l-0.6,1.5c-0.4-0.3-0.9-0.5-1.5-0.5C167,73.5,166.4,74.2,166.4,75.4z M172.9,73.9
		c-0.2-0.2-0.4-0.5-0.4-0.9c0-0.3,0.1-0.6,0.4-0.9c0.2-0.2,0.6-0.4,0.9-0.4c0.4,0,0.7,0.1,0.9,0.3c0.2,0.2,0.4,0.5,0.4,0.9
		c0,0.4-0.1,0.7-0.4,0.9c-0.2,0.2-0.6,0.4-0.9,0.4C173.5,74.3,173.2,74.2,172.9,73.9z M172.9,76.3h1.9v10.6h-1.9V76.3z"/>
	<path style="fill:#FFFFFF;" d="M181.8,76.7c0.7-0.3,1.4-0.5,2.4-0.5v1.9c-0.1,0-0.3,0-0.4,0c-1,0-1.9,0.3-2.4,0.9
		c-0.6,0.6-0.9,1.5-0.9,2.6v5.3h-1.9V76.3h1.8v1.8C180.6,77.5,181.1,77,181.8,76.7z"/>
	<path style="fill:#FFFFFF;" d="M187.1,86.7c-0.8-0.2-1.4-0.5-1.9-0.9l0.8-1.5c0.5,0.3,1,0.6,1.7,0.8c0.7,0.2,1.3,0.3,2,0.3
		c1.7,0,2.5-0.5,2.5-1.4c0-0.3-0.1-0.6-0.3-0.8c-0.2-0.2-0.5-0.3-0.8-0.4c-0.3-0.1-0.8-0.2-1.4-0.3c-0.9-0.1-1.5-0.3-2.1-0.5
		c-0.5-0.2-1-0.5-1.4-0.9c-0.4-0.4-0.6-1-0.6-1.7c0-1,0.4-1.7,1.2-2.3c0.8-0.6,1.9-0.9,3.2-0.9c0.7,0,1.4,0.1,2.1,0.3
		c0.7,0.2,1.3,0.4,1.7,0.7l-0.8,1.5c-0.9-0.6-1.9-0.8-3.1-0.8c-0.8,0-1.4,0.1-1.9,0.4c-0.4,0.3-0.6,0.6-0.6,1.1
		c0,0.3,0.1,0.6,0.4,0.8c0.2,0.2,0.5,0.3,0.9,0.4c0.4,0.1,0.8,0.2,1.5,0.3c0.9,0.1,1.5,0.3,2.1,0.5c0.5,0.2,1,0.4,1.3,0.8
		c0.4,0.4,0.6,1,0.6,1.7c0,1-0.4,1.7-1.2,2.3c-0.8,0.6-1.9,0.8-3.3,0.8C188.7,87,187.9,86.9,187.1,86.7z"/>
	<path style="fill:#FFFFFF;" d="M202.5,86.3c-0.3,0.2-0.6,0.4-1,0.5c-0.4,0.1-0.8,0.2-1.3,0.2c-1.1,0-1.9-0.3-2.5-0.9
		c-0.6-0.6-0.9-1.4-0.9-2.5v-5.8H195v-1.6h1.8V74h1.9v2.3h3v1.6h-3v5.7c0,0.6,0.1,1,0.4,1.3c0.3,0.3,0.7,0.5,1.2,0.5
		c0.6,0,1.1-0.2,1.5-0.5L202.5,86.3z"/>
</g>
</svg>
