<?xml version="1.0" encoding="utf-8"?>
<!-- Generator: Adobe Illustrator 28.2.0, SVG Export Plug-In . SVG Version: 6.00 Build 0)  -->
<svg version="1.1" id="Flags" xmlns="http://www.w3.org/2000/svg" xmlns:xlink="http://www.w3.org/1999/xlink" x="0px" y="0px"
	 viewBox="0 0 500 327.5" style="enable-background:new 0 0 500 327.5;" xml:space="preserve">
<style type="text/css">
	.st0{clip-path:url(#SVGID_00000004518587465038234790000015120603344142216113_);}
	.st1{fill:#ED3027;}
	.st2{clip-path:url(#SVGID_00000011016690645723276370000014600732636615168437_);}
	.st3{clip-path:url(#SVGID_00000039823911257642121300000014755531523741023411_);}
	.st4{fill:#FFFFFF;}
</style>
<g>
	<g>
		<g>
			<g>
				<defs>
					<path id="SVGID_1_" d="M0,17c166.7,46.7,333.3-46.7,500,0c0,97.2,0,194.4,0,291.7c-166.7-46.7-333.3,46.7-500,0
						C0,211.4,0,114.2,0,17z"/>
				</defs>
				<clipPath id="SVGID_00000089553279074251532100000011378554841179324319_">
					<use xlink:href="#SVGID_1_"  style="overflow:visible;"/>
				</clipPath>
				<g style="clip-path:url(#SVGID_00000089553279074251532100000011378554841179324319_);">
					<path class="st1" d="M0,114.2c166.7,46.7,333.3-46.7,500,0c0-32.4,0-64.8,0-97.2C333.3-29.7,166.7,63.6,0,17
						C0,49.4,0,81.8,0,114.2z"/>
				</g>
			</g>
			<g>
				<defs>
					<path id="SVGID_00000163061534551106300310000003673069816617151618_" d="M0,17c166.7,46.7,333.3-46.7,500,0
						c0,97.2,0,194.4,0,291.7c-166.7-46.7-333.3,46.7-500,0C0,211.4,0,114.2,0,17z"/>
				</defs>
				<clipPath id="SVGID_00000071534804916151984330000006086502487935080879_">
					<use xlink:href="#SVGID_00000163061534551106300310000003673069816617151618_"  style="overflow:visible;"/>
				</clipPath>
				<g style="clip-path:url(#SVGID_00000071534804916151984330000006086502487935080879_);">
					<path class="st1" d="M0,308.6c166.7,46.7,333.3-46.7,500,0c0-32.4,0-64.8,0-97.2c-166.7-46.7-333.3,46.7-500,0
						C0,243.8,0,276.2,0,308.6z"/>
				</g>
			</g>
			<g>
				<defs>
					<path id="SVGID_00000043451605001430362020000004812757099085699254_" d="M0,17c166.7,46.7,333.3-46.7,500,0
						c0,97.2,0,194.4,0,291.7c-166.7-46.7-333.3,46.7-500,0C0,211.4,0,114.2,0,17z"/>
				</defs>
				<clipPath id="SVGID_00000052782530303306497910000017594502305300631701_">
					<use xlink:href="#SVGID_00000043451605001430362020000004812757099085699254_"  style="overflow:visible;"/>
				</clipPath>
				<g style="clip-path:url(#SVGID_00000052782530303306497910000017594502305300631701_);">
					<path class="st4" d="M0,211.5c166.7,46.7,333.3-46.7,500,0c0-32.4,0-64.8,0-97.2c-166.7-46.7-333.3,46.7-500,0
						C0,146.6,0,179,0,211.5z"/>
				</g>
			</g>
		</g>
	</g>
</g>
</svg>
