<?xml version="1.0" encoding="utf-8"?>
<!-- Generator: Adobe Illustrator 28.2.0, SVG Export Plug-In . SVG Version: 6.00 Build 0)  -->
<svg version="1.1" id="Flags" xmlns="http://www.w3.org/2000/svg" xmlns:xlink="http://www.w3.org/1999/xlink" x="0px" y="0px"
	 viewBox="0 0 500 318.6" style="enable-background:new 0 0 500 318.6;" xml:space="preserve">
<style type="text/css">
	.st0{fill:none;}
	.st1{fill:#FFFFFF;}
	.st2{fill:#D62612;}
	.st3{fill:#00966E;}
</style>
<path class="st0" d="M0,13.5c166.7,46.7,333.3-46.7,500,0c0,97.2,0,194.4,0,291.7c-166.7-46.7-333.3,46.7-500,0
	C0,207.9,0,110.7,0,13.5z"/>
<g>
	<path class="st1" d="M0,110.7c166.7,46.7,333.3-46.7,500,0c0-32.4,0-64.8,0-97.2c-166.7-46.7-333.3,46.7-500,0
		C0,45.9,0,78.3,0,110.7z"/>
</g>
<path class="st0" d="M0,13.5c166.7,46.7,333.3-46.7,500,0c0,97.2,0,194.4,0,291.7c-166.7-46.7-333.3,46.7-500,0
	C0,207.9,0,110.7,0,13.5z"/>
<g>
	<path class="st2" d="M0,305.1c166.7,46.7,333.3-46.7,500,0c0-32.4,0-64.8,0-97.2c-166.7-46.7-333.3,46.7-500,0
		C0,240.3,0,272.7,0,305.1z"/>
</g>
<path class="st0" d="M0,13.5c166.7,46.7,333.3-46.7,500,0c0,97.2,0,194.4,0,291.7c-166.7-46.7-333.3,46.7-500,0
	C0,207.9,0,110.7,0,13.5z"/>
<g>
	<path class="st3" d="M0,208c166.7,46.7,333.3-46.7,500,0c0-32.4,0-64.8,0-97.2c-166.7-46.7-333.3,46.7-500,0C0,143.1,0,175.5,0,208
		z"/>
</g>
</svg>
