<?xml version="1.0" encoding="utf-8"?>
<!-- Generator: Adobe Illustrator 28.2.0, SVG Export Plug-In . SVG Version: 6.00 Build 0)  -->
<svg version="1.1" id="Flags" xmlns="http://www.w3.org/2000/svg" xmlns:xlink="http://www.w3.org/1999/xlink" x="0px" y="0px"
	 viewBox="0 0 500 318.6" style="enable-background:new 0 0 500 318.6;" xml:space="preserve">
<style type="text/css">
	.st0{clip-path:url(#SVGID_00000179608441284612621960000006445243138501845406_);}
	.st1{fill:#C3212B;}
	.st2{clip-path:url(#SVGID_00000031912525279090205460000004270223961768775595_);}
	.st3{fill:#FFFFFF;}
	.st4{clip-path:url(#SVGID_00000124143794311073233410000004788128854466029474_);}
	.st5{fill:#28477E;}
</style>
<g>
	<g>
		<g>
			<g>
				<defs>
					<path id="SVGID_1_" d="M0,13.5c166.7,46.7,333.3-46.7,500,0c0,97.2,0,194.4,0,291.7c-166.7-46.7-333.3,46.7-500,0
						C0,207.9,0,110.7,0,13.5z"/>
				</defs>
				<clipPath id="SVGID_00000158007190711525555390000011926725240664266431_">
					<use xlink:href="#SVGID_1_"  style="overflow:visible;"/>
				</clipPath>
				<g style="clip-path:url(#SVGID_00000158007190711525555390000011926725240664266431_);">
					<path class="st1" d="M0,305.1c166.7,46.7,333.3-46.7,500,0c0-97.2,0-194.4,0-291.7c-166.7-46.7-333.3,46.7-500,0
						C0,110.7,0,207.9,0,305.1z"/>
				</g>
			</g>
			<g>
				<defs>
					<path id="SVGID_00000135659869919847481910000014257039714779656361_" d="M0,13.5c166.7,46.7,333.3-46.7,500,0
						c0,97.2,0,194.4,0,291.7c-166.7-46.7-333.3,46.7-500,0C0,207.9,0,110.7,0,13.5z"/>
				</defs>
				<clipPath id="SVGID_00000145056522975468738420000015764495508852466817_">
					<use xlink:href="#SVGID_00000135659869919847481910000014257039714779656361_"  style="overflow:visible;"/>
				</clipPath>
				<g style="clip-path:url(#SVGID_00000145056522975468738420000015764495508852466817_);">
					<path class="st3" d="M0,159.3c166.7,46.7,333.3-46.7,500,0c0-48.6,0-97.2,0-145.8c-166.7-46.7-333.3,46.7-500,0
						C0,62.1,0,110.7,0,159.3z"/>
				</g>
			</g>
			<g>
				<defs>
					<path id="SVGID_00000059284867042542678550000002919063069345763483_" d="M0,13.5c166.7,46.7,333.3-46.7,500,0
						c0,97.2,0,194.4,0,291.7c-166.7-46.7-333.3,46.7-500,0C0,207.9,0,110.7,0,13.5z"/>
				</defs>
				<clipPath id="SVGID_00000115485104449785243660000010139619734120887711_">
					<use xlink:href="#SVGID_00000059284867042542678550000002919063069345763483_"  style="overflow:visible;"/>
				</clipPath>
				<g style="clip-path:url(#SVGID_00000115485104449785243660000010139619734120887711_);">
					<path class="st5" d="M0,13.5c0,97.2,0,194.4,0,291.7c72.9-28.2,145.8-83.2,218.8-141.6C145.8,124.7,72.9,82.5,0,13.5z"/>
				</g>
			</g>
		</g>
	</g>
</g>
</svg>
