<?xml version="1.0" encoding="utf-8"?>
<!-- Generator: Adobe Illustrator 28.2.0, SVG Export Plug-In . SVG Version: 6.00 Build 0)  -->
<svg version="1.1" id="Flags" xmlns="http://www.w3.org/2000/svg" xmlns:xlink="http://www.w3.org/1999/xlink" x="0px" y="0px"
	 viewBox="0 0 357.9 228" style="enable-background:new 0 0 357.9 228;" xml:space="preserve">
<style type="text/css">
	.st0{clip-path:url(#SVGID_00000044151267813853914920000011374382318619010227_);}
	.st1{fill:#BC2035;}
	.st2{clip-path:url(#SVGID_00000165219491300551128760000008308239105051089815_);}
	.st3{fill:#FFFFFF;}
	.st4{clip-path:url(#SVGID_00000080172224049223959580000013721104221994795929_);}
	.st5{fill:#3C9347;}
</style>
<g>
	<g>
		<g>
			<g>
				<defs>
					<path id="SVGID_1_" d="M0,9.6c119.3,33.4,238.6-33.4,357.9,0c0,69.6,0,139.2,0,208.7C238.6,185,119.3,251.8,0,218.4
						C0,148.8,0,79.2,0,9.6z"/>
				</defs>
				<clipPath id="SVGID_00000005988726275885574300000015598201831397773993_">
					<use xlink:href="#SVGID_1_"  style="overflow:visible;"/>
				</clipPath>
				<g style="clip-path:url(#SVGID_00000005988726275885574300000015598201831397773993_);">
					<path class="st1" d="M0,218.4c119.3,33.4,238.6-33.4,357.9,0c0-69.6,0-139.2,0-208.7C238.6-23.8,119.3,43,0,9.6
						C0,79.2,0,148.8,0,218.4z"/>
				</g>
			</g>
			<g>
				<defs>
					<path id="SVGID_00000032638200153106531930000016571115463240511880_" d="M0,9.6c119.3,33.4,238.6-33.4,357.9,0
						c0,69.6,0,139.2,0,208.7C238.6,185,119.3,251.8,0,218.4C0,148.8,0,79.2,0,9.6z"/>
				</defs>
				<clipPath id="SVGID_00000043438259739617533160000013105671419717509014_">
					<use xlink:href="#SVGID_00000032638200153106531930000016571115463240511880_"  style="overflow:visible;"/>
				</clipPath>
				<g style="clip-path:url(#SVGID_00000043438259739617533160000013105671419717509014_);">
					<path class="st3" d="M0,218.4c119.3,33.4,238.6-33.4,357.9,0c0-46.4,0-92.8,0-139.1C238.6,45.8,119.3,112.6,0,79.2
						C0,125.6,0,172,0,218.4z"/>
				</g>
			</g>
			<g>
				<defs>
					<path id="SVGID_00000145053202604762851100000013770922385035835835_" d="M0,9.6c119.3,33.4,238.6-33.4,357.9,0
						c0,69.6,0,139.2,0,208.7C238.6,185,119.3,251.8,0,218.4C0,148.8,0,79.2,0,9.6z"/>
				</defs>
				<clipPath id="SVGID_00000064350146096493462780000012476276324033580718_">
					<use xlink:href="#SVGID_00000145053202604762851100000013770922385035835835_"  style="overflow:visible;"/>
				</clipPath>
				<g style="clip-path:url(#SVGID_00000064350146096493462780000012476276324033580718_);">
					<path class="st5" d="M0,218.4c119.3,33.4,238.6-33.4,357.9,0c0-23.2,0-46.4,0-69.6c-119.3-33.4-238.6,33.4-357.9,0
						C0,172,0,195.2,0,218.4z"/>
				</g>
			</g>
		</g>
	</g>
</g>
</svg>
