<?xml version="1.0" encoding="utf-8"?>
<!-- Generator: Adobe Illustrator 28.2.0, SVG Export Plug-In . SVG Version: 6.00 Build 0)  -->
<svg version="1.1" id="Flags" xmlns="http://www.w3.org/2000/svg" xmlns:xlink="http://www.w3.org/1999/xlink" x="0px" y="0px"
	 viewBox="0 0 357.8 228" style="enable-background:new 0 0 357.8 228;" xml:space="preserve">
<style type="text/css">
	.st0{clip-path:url(#SVGID_00000060723651111510860180000005925556250273909944_);}
	.st1{fill:#BF2328;}
	.st2{clip-path:url(#SVGID_00000142163378591107533860000015052542266684345260_);}
	.st3{fill:#F8E61C;}
	.st4{clip-path:url(#SVGID_00000003784405942649624420000007426517113259315639_);}
	.st5{clip-path:url(#SVGID_00000046332944859255898100000005037007386008438154_);}
	.st6{clip-path:url(#SVGID_00000152971216631088221540000016782159280670762378_);}
	.st7{clip-path:url(#SVGID_00000014593543519789589590000003016686917410046613_);}
	.st8{clip-path:url(#SVGID_00000053510303033219242820000004453848827377880969_);}
	.st9{clip-path:url(#SVGID_00000073683887095453370040000000785360074353719446_);}
</style>
<g>
	<g>
		<g>
			<g>
				<defs>
					<path id="SVGID_1_" d="M0,9.6c119.3,33.4,238.6-33.4,357.8,0c0,69.6,0,139.2,0,208.8C238.5,185,119.3,251.8,0,218.4
						C0,148.8,0,79.2,0,9.6z"/>
				</defs>
				<clipPath id="SVGID_00000067224684439763440280000009885696763549961918_">
					<use xlink:href="#SVGID_1_"  style="overflow:visible;"/>
				</clipPath>
			</g>
		</g>
	</g>
	<g>
		<g>
			<g>
				<defs>
					<path id="SVGID_00000071553071831338861230000010406018461969617339_" d="M0,9.6c119.3,33.4,238.6-33.4,357.8,0
						c0,69.6,0,139.2,0,208.8C238.5,185,119.3,251.8,0,218.4C0,148.8,0,79.2,0,9.6z"/>
				</defs>
				<clipPath id="SVGID_00000009567949415305949130000012284913828571317934_">
					<use xlink:href="#SVGID_00000071553071831338861230000010406018461969617339_"  style="overflow:visible;"/>
				</clipPath>
				<g style="clip-path:url(#SVGID_00000009567949415305949130000012284913828571317934_);">
					<path class="st1" d="M0,218.4c119.3,33.4,238.6-33.4,357.8,0c0-69.6,0-139.2,0-208.8C238.5-23.8,119.3,43,0,9.6
						C0,79.2,0,148.8,0,218.4z"/>
				</g>
			</g>
			<g>
				<defs>
					<path id="SVGID_00000170279804329217491370000011704778471387482539_" d="M0,9.6c119.3,33.4,238.6-33.4,357.8,0
						c0,69.6,0,139.2,0,208.8C238.5,185,119.3,251.8,0,218.4C0,148.8,0,79.2,0,9.6z"/>
				</defs>
				<clipPath id="SVGID_00000137104001489565087630000003656080806870780838_">
					<use xlink:href="#SVGID_00000170279804329217491370000011704778471387482539_"  style="overflow:visible;"/>
				</clipPath>
				<g style="clip-path:url(#SVGID_00000137104001489565087630000003656080806870780838_);">
					<path class="st3" d="M304.2,209.5c17.9,1.2,35.8,3.9,53.7,8.9c-59.6-51.5-119.3-77.9-178.9-104.4
						C220.7,143,262.4,171.9,304.2,209.5z M0,9.6C59.6,61.1,119.3,87.6,178.9,114C137.2,85.1,95.4,56.1,53.7,18.6
						C35.8,17.4,17.9,14.7,0,9.6z"/>
				</g>
			</g>
			<g>
				<defs>
					<path id="SVGID_00000134250624600757192650000004588407989557941637_" d="M0,9.6c119.3,33.4,238.6-33.4,357.8,0
						c0,69.6,0,139.2,0,208.8C238.5,185,119.3,251.8,0,218.4C0,148.8,0,79.2,0,9.6z"/>
				</defs>
				<clipPath id="SVGID_00000081640934603996997000000017956576492301833609_">
					<use xlink:href="#SVGID_00000134250624600757192650000004588407989557941637_"  style="overflow:visible;"/>
				</clipPath>
				<g style="clip-path:url(#SVGID_00000081640934603996997000000017956576492301833609_);">
					<path class="st3" d="M161,220.9c11.9-1.6,23.9-3.3,35.8-5c-6-34-11.9-67.9-17.9-101.9C173,149.6,167,185.3,161,220.9z
						 M161,12.1c6,34,11.9,67.9,17.9,101.9c6-35.6,11.9-71.3,17.9-106.9C184.9,8.8,173,10.5,161,12.1z"/>
				</g>
			</g>
			<g>
				<defs>
					<path id="SVGID_00000080172928831903559210000012810969758514976666_" d="M0,9.6c119.3,33.4,238.6-33.4,357.8,0
						c0,69.6,0,139.2,0,208.8C238.5,185,119.3,251.8,0,218.4C0,148.8,0,79.2,0,9.6z"/>
				</defs>
				<clipPath id="SVGID_00000180326255841824240350000017263099342332532141_">
					<use xlink:href="#SVGID_00000080172928831903559210000012810969758514976666_"  style="overflow:visible;"/>
				</clipPath>
				<g style="clip-path:url(#SVGID_00000180326255841824240350000017263099342332532141_);">
					<path class="st3" d="M0,218.4c17.9,5,35.8,7.8,53.7,8.9c41.7-32,83.5-72.7,125.2-113.3C119.3,157.2,59.6,200.3,0,218.4z
						 M304.2,0.7c-41.7,32-83.5,72.7-125.2,113.3C238.6,70.9,298.2,27.7,357.8,9.6C339.9,4.6,322,1.9,304.2,0.7z"/>
				</g>
			</g>
			<g>
				<defs>
					<path id="SVGID_00000003085932895104840580000003059893114175058568_" d="M0,9.6c119.3,33.4,238.6-33.4,357.8,0
						c0,69.6,0,139.2,0,208.8C238.5,185,119.3,251.8,0,218.4C0,148.8,0,79.2,0,9.6z"/>
				</defs>
				<clipPath id="SVGID_00000023269914243504022850000013910109545471254680_">
					<use xlink:href="#SVGID_00000003085932895104840580000003059893114175058568_"  style="overflow:visible;"/>
				</clipPath>
				<g style="clip-path:url(#SVGID_00000023269914243504022850000013910109545471254680_);">
					<path class="st3" d="M0,134.9c59.6,9.7,119.3-5.6,178.9-20.9C119.3,115.4,59.6,116.8,0,93.2C0,107.1,0,121,0,134.9z M178.9,114
						c59.6-1.4,119.3-2.8,178.9,20.9c0-13.9,0-27.8,0-41.7C298.2,83.4,238.6,98.7,178.9,114z"/>
				</g>
			</g>
			<g>
				<defs>
					<path id="SVGID_00000038402355193916002170000002770996566129374874_" d="M0,9.6c119.3,33.4,238.6-33.4,357.8,0
						c0,69.6,0,139.2,0,208.8C238.5,185,119.3,251.8,0,218.4C0,148.8,0,79.2,0,9.6z"/>
				</defs>
				<clipPath id="SVGID_00000101814763683236518110000010160686731834355366_">
					<use xlink:href="#SVGID_00000038402355193916002170000002770996566129374874_"  style="overflow:visible;"/>
				</clipPath>
				<g style="clip-path:url(#SVGID_00000101814763683236518110000010160686731834355366_);">
					<g>
						<defs>
							<path id="SVGID_00000119807142469090443920000007984428663781026949_" d="M0,9.6c119.3,33.4,238.6-33.4,357.8,0
								c0,69.6,0,139.2,0,208.8C238.5,185,119.3,251.8,0,218.4C0,148.8,0,79.2,0,9.6z"/>
						</defs>
						<clipPath id="SVGID_00000178179244191200044090000014149256507835434624_">
							<use xlink:href="#SVGID_00000119807142469090443920000007984428663781026949_"  style="overflow:visible;"/>
						</clipPath>
						<g style="clip-path:url(#SVGID_00000178179244191200044090000014149256507835434624_);">
							<path class="st1" d="M178.9,76.7c20.6-2.9,37.3,11.7,37.3,32.3c0,20.6-16.7,39.3-37.3,42.3c-20.6,2.9-37.3-11.6-37.3-32.3
								C141.6,98.4,158.4,79.7,178.9,76.7"/>
						</g>
					</g>
					<g>
						<defs>
							<path id="SVGID_00000097477200843489916200000016754338773794668215_" d="M0,9.6c119.3,33.4,238.6-33.4,357.8,0
								c0,69.6,0,139.2,0,208.8C238.5,185,119.3,251.8,0,218.4C0,148.8,0,79.2,0,9.6z"/>
						</defs>
						<clipPath id="SVGID_00000028317813276302843840000015375161752058320768_">
							<use xlink:href="#SVGID_00000097477200843489916200000016754338773794668215_"  style="overflow:visible;"/>
						</clipPath>
						<g style="clip-path:url(#SVGID_00000028317813276302843840000015375161752058320768_);">
							<path class="st3" d="M178.9,84.2c16.5-2.3,29.8,9.3,29.8,25.8c0,16.5-13.3,31.5-29.8,33.9c-16.5,2.3-29.8-9.3-29.8-25.8
								C149.1,101.6,162.5,86.5,178.9,84.2"/>
						</g>
					</g>
				</g>
			</g>
		</g>
	</g>
	<g>
		<g>
			<g>
				<defs>
					<path id="SVGID_00000075142563921032347510000003161160617144071561_" d="M0,9.6c119.3,33.4,238.6-33.4,357.8,0
						c0,69.6,0,139.2,0,208.8C238.5,185,119.3,251.8,0,218.4C0,148.8,0,79.2,0,9.6z"/>
				</defs>
				<clipPath id="SVGID_00000088836419080610820150000001559182563461527716_">
					<use xlink:href="#SVGID_00000075142563921032347510000003161160617144071561_"  style="overflow:visible;"/>
				</clipPath>
			</g>
		</g>
	</g>
</g>
</svg>
