<?xml version="1.0" encoding="utf-8"?>
<!-- Generator: Adobe Illustrator 28.2.0, SVG Export Plug-In . SVG Version: 6.00 Build 0)  -->
<svg version="1.1" id="Flags" xmlns="http://www.w3.org/2000/svg" xmlns:xlink="http://www.w3.org/1999/xlink" x="0px" y="0px"
	 viewBox="0 0 357.8 228.1" style="enable-background:new 0 0 357.8 228.1;" xml:space="preserve">
<style type="text/css">
	.st0{clip-path:url(#SVGID_00000064352194418845107240000017888579272192115852_);}
	.st1{fill:#D81E3B;}
	.st2{clip-path:url(#SVGID_00000069365964742111445260000012302207928879724167_);}
	.st3{fill:#EEE422;}
	.st4{clip-path:url(#SVGID_00000147216796372916031800000016445552879846079399_);}
	.st5{fill:#2E307F;}
	.st6{fill:none;}
	.st7{clip-path:url(#SVGID_00000156546778905104542160000013768457347080305842_);}
	.st8{fill:#4A2915;}
</style>
<g>
	<g>
		<g>
			<defs>
				<path id="SVGID_1_" d="M0,9.6c119.3,33.4,238.6-33.4,357.8,0c0,69.6,0,139.2,0,208.8C238.6,185,119.3,251.8,0,218.4
					C0,148.8,0,79.2,0,9.6z"/>
			</defs>
			<clipPath id="SVGID_00000009552144196983414890000009500501099690702216_">
				<use xlink:href="#SVGID_1_"  style="overflow:visible;"/>
			</clipPath>
		</g>
	</g>
</g>
<g>
	<defs>
		<path id="SVGID_00000052102022028699594620000005911886878522813847_" d="M0,9.6c119.3,33.4,238.6-33.4,357.8,0
			c0,69.6,0,139.2,0,208.8C238.6,185,119.3,251.8,0,218.4C0,148.8,0,79.2,0,9.6z"/>
	</defs>
	<clipPath id="SVGID_00000116956142942893206710000013506971032308401835_">
		<use xlink:href="#SVGID_00000052102022028699594620000005911886878522813847_"  style="overflow:visible;"/>
	</clipPath>
	<g style="clip-path:url(#SVGID_00000116956142942893206710000013506971032308401835_);">
		<path class="st1" d="M245.9,210.3c37.3-3,74.6-2.4,111.9,8.1c0-69.6,0-139.2,0-208.8C320.5-0.8,283.2-1.4,245.9,1.6
			C245.9,71.2,245.9,140.8,245.9,210.3z"/>
	</g>
</g>
<g>
	<defs>
		<path id="SVGID_00000096022459041885665350000014036240037113255077_" d="M0,10.6c119.3,33.4,238.6-33.4,357.8,0
			c0,69.6,0,139.2,0,208.8C238.6,186,119.3,252.8,0,219.4C0,149.8,0,80.2,0,10.6z"/>
	</defs>
	<clipPath id="SVGID_00000000211402295380867970000008917222536026316725_">
		<use xlink:href="#SVGID_00000096022459041885665350000014036240037113255077_"  style="overflow:visible;"/>
	</clipPath>
	<g style="clip-path:url(#SVGID_00000000211402295380867970000008917222536026316725_);">
		<path class="st3" d="M111.9,227.5c44.7-3.6,89.4-12.5,134-16.1c0-69.6,0-139.2,0-208.8c-44.7,3.6-89.4,12.5-134,16.1
			C111.9,88.3,111.9,157.9,111.9,227.5z"/>
	</g>
</g>
<g>
	<defs>
		<path id="SVGID_00000062899686363222191160000015221635398299327885_" d="M0,9.6c119.3,33.4,238.6-33.4,357.8,0
			c0,69.6,0,139.2,0,208.8C238.6,185,119.3,251.8,0,218.4C0,148.8,0,79.2,0,9.6z"/>
	</defs>
	<clipPath id="SVGID_00000125601007339697392960000014936571875604502165_">
		<use xlink:href="#SVGID_00000062899686363222191160000015221635398299327885_"  style="overflow:visible;"/>
	</clipPath>
	<g style="clip-path:url(#SVGID_00000125601007339697392960000014936571875604502165_);">
		<path class="st5" d="M0,218.4c37.3,10.4,74.6,11.1,111.9,8.1c0-69.6,0-139.2,0-208.8C74.6,20.7,37.3,20.1,0,9.6
			C0,79.2,0,148.8,0,218.4z"/>
	</g>
</g>
<path class="st6" d="M0,9.6c119.3,33.4,238.6-33.4,357.8,0c0,69.6,0,139.2,0,208.8C238.6,185,119.3,251.8,0,218.4
	C0,148.8,0,79.2,0,9.6z"/>
<g>
	<defs>
		<path id="SVGID_00000117642688679971666420000004978235143057924245_" d="M0,9.6c119.3,33.4,238.6-33.4,357.8,0
			c0,69.6,0,139.2,0,208.8C238.6,185,119.3,251.8,0,218.4C0,148.8,0,79.2,0,9.6z"/>
	</defs>
	<clipPath id="SVGID_00000048483298377639337890000002414615073040949136_">
		<use xlink:href="#SVGID_00000117642688679971666420000004978235143057924245_"  style="overflow:visible;"/>
	</clipPath>
	<g style="clip-path:url(#SVGID_00000048483298377639337890000002414615073040949136_);">
		<path class="st8" d="M230,122.3c-0.1,0-0.2,0-0.4,0c0.1,0,0.1,0,0.2,0c0-0.1-0.1-0.3-0.1-0.4c0-0.6-0.3-1.1-0.7-1.5
			c-0.1-0.2-0.2-0.5-0.3-0.7c0.1,0.1,0.3,0.2,0.4,0.3c0.6,0.5,0.9,1.1,0.9,1.8C230,122,230,122.1,230,122.3L230,122.3z"/>
	</g>
</g>
<g>
	<g>
		<g>
			<defs>
				<path id="SVGID_00000006709106665621299100000014676376695341352351_" d="M0,9.6c119.3,33.4,238.6-33.4,357.8,0
					c0,69.6,0,139.2,0,208.8C238.6,185,119.3,251.8,0,218.4C0,148.8,0,79.2,0,9.6z"/>
			</defs>
			<clipPath id="SVGID_00000067921822441603042520000014539993813837479315_">
				<use xlink:href="#SVGID_00000006709106665621299100000014676376695341352351_"  style="overflow:visible;"/>
			</clipPath>
		</g>
	</g>
</g>
</svg>
