<?xml version="1.0" encoding="utf-8"?>
<!-- Generator: Adobe Illustrator 28.2.0, SVG Export Plug-In . SVG Version: 6.00 Build 0)  -->
<svg version="1.1" id="Flags" xmlns="http://www.w3.org/2000/svg" xmlns:xlink="http://www.w3.org/1999/xlink" x="0px" y="0px"
	 viewBox="0 0 357.8 228" style="enable-background:new 0 0 357.8 228;" xml:space="preserve">
<style type="text/css">
	.st0{clip-path:url(#SVGID_00000158729810116076814000000001215823184379295626_);}
	.st1{fill:#C92035;}
	.st2{clip-path:url(#SVGID_00000026877496472364138070000013969533127230131604_);}
	.st3{fill:#FFFFFF;}
	.st4{clip-path:url(#SVGID_00000048474814291627859550000014536564591074893977_);}
	.st5{fill:#313F83;}
</style>
<g>
	<g>
		<g>
			<g>
				<defs>
					<path id="SVGID_1_" d="M357.8,218.4C238.5,185,119.3,251.8,0,218.4C0,148.8,0,79.2,0,9.6c119.3,33.4,238.6-33.4,357.8,0
						C357.8,79.2,357.8,148.8,357.8,218.4z"/>
				</defs>
				<clipPath id="SVGID_00000152237385616066625510000001595571485357507238_">
					<use xlink:href="#SVGID_1_"  style="overflow:visible;"/>
				</clipPath>
			</g>
		</g>
	</g>
	<g>
		<g>
			<defs>
				<path id="SVGID_00000049919159475446042070000003914717279847857560_" d="M357.8,218.4C238.5,185,119.3,251.8,0,218.4
					C0,148.8,0,79.2,0,9.6c119.3,33.4,238.6-33.4,357.8,0C357.8,79.2,357.8,148.8,357.8,218.4z"/>
			</defs>
			<clipPath id="SVGID_00000037690529598287638290000002558832508735539341_">
				<use xlink:href="#SVGID_00000049919159475446042070000003914717279847857560_"  style="overflow:visible;"/>
			</clipPath>
			<g style="clip-path:url(#SVGID_00000037690529598287638290000002558832508735539341_);">
				<path class="st1" d="M357.8,148.8c-119.3-33.4-238.6,33.4-357.8,0c0,23.2,0,46.4,0,69.6c119.3,33.4,238.6-33.4,357.8,0
					C357.8,195.2,357.8,172,357.8,148.8z"/>
			</g>
		</g>
		<g>
			<defs>
				<path id="SVGID_00000008866493575516417990000004804380804820644539_" d="M357.8,218.4C238.5,185,119.3,251.8,0,218.4
					C0,148.8,0,79.2,0,9.6c119.3,33.4,238.6-33.4,357.8,0C357.8,79.2,357.8,148.8,357.8,218.4z"/>
			</defs>
			<clipPath id="SVGID_00000161607905393628514320000003462302304705301664_">
				<use xlink:href="#SVGID_00000008866493575516417990000004804380804820644539_"  style="overflow:visible;"/>
			</clipPath>
			<g style="clip-path:url(#SVGID_00000161607905393628514320000003462302304705301664_);">
				<path class="st3" d="M357.8,9.6C238.5-23.8,119.3,43,0,9.6C0,32.8,0,56,0,79.2c119.3,33.4,238.6-33.4,357.8,0
					C357.8,56,357.8,32.8,357.8,9.6z M357.8,79.2c0,23.2,0,46.4,0,69.6C357.8,125.6,357.8,102.4,357.8,79.2z"/>
			</g>
		</g>
		<g>
			<defs>
				<path id="SVGID_00000044160936565472091220000002922623877732273334_" d="M357.8,218.4C238.5,185,119.3,251.8,0,218.4
					C0,148.8,0,79.2,0,9.6c119.3,33.4,238.6-33.4,357.8,0C357.8,79.2,357.8,148.8,357.8,218.4z"/>
			</defs>
			<clipPath id="SVGID_00000044864161235656023760000012750937859801922220_">
				<use xlink:href="#SVGID_00000044160936565472091220000002922623877732273334_"  style="overflow:visible;"/>
			</clipPath>
			<g style="clip-path:url(#SVGID_00000044864161235656023760000012750937859801922220_);">
				<path class="st5" d="M357.8,79.2C238.5,45.8,119.3,112.6,0,79.2c0,23.2,0,46.4,0,69.6c119.3,33.4,238.6-33.4,357.8,0
					C357.8,125.6,357.8,102.4,357.8,79.2z"/>
			</g>
		</g>
	</g>
	<g>
		<g>
			<g>
				<defs>
					<path id="SVGID_00000145775111203156926450000000613327420087344785_" d="M357.8,218.4C238.5,185,119.3,251.8,0,218.4
						C0,148.8,0,79.2,0,9.6c119.3,33.4,238.6-33.4,357.8,0C357.8,79.2,357.8,148.8,357.8,218.4z"/>
				</defs>
				<clipPath id="SVGID_00000094616460527183298240000006117588584841828001_">
					<use xlink:href="#SVGID_00000145775111203156926450000000613327420087344785_"  style="overflow:visible;"/>
				</clipPath>
			</g>
		</g>
	</g>
</g>
</svg>
