<?xml version="1.0" encoding="utf-8"?>
<!-- Generator: Adobe Illustrator 28.2.0, SVG Export Plug-In . SVG Version: 6.00 Build 0)  -->
<svg version="1.1" id="Flags" xmlns="http://www.w3.org/2000/svg" xmlns:xlink="http://www.w3.org/1999/xlink" x="0px" y="0px"
	 viewBox="0 0 357.8 228" style="enable-background:new 0 0 357.8 228;" xml:space="preserve">
<style type="text/css">
	.st0{clip-path:url(#SVGID_00000074426675145153007560000000255983838398213511_);}
	.st1{fill:#FFFFFF;}
	.st2{clip-path:url(#SVGID_00000124147536171809689770000009790341183894236034_);}
	.st3{fill:#E62328;}
	.st4{clip-path:url(#SVGID_00000170259561108031648740000011987653088701303439_);}
	.st5{fill:#4960AA;}
	.st6{clip-path:url(#SVGID_00000088102889354418667820000015961301271878363801_);}
	.st7{clip-path:url(#SVGID_00000134234273526110988210000002622055650001850556_);}
	.st8{clip-path:url(#SVGID_00000099643957309645552210000011509850852726711474_);}
	.st9{clip-path:url(#SVGID_00000006674013627515099140000013319672903340251530_);}
	.st10{fill:#F8E61C;}
	.st11{clip-path:url(#SVGID_00000023984139823551934990000000764902032947954867_);}
	.st12{clip-path:url(#SVGID_00000084495801327976773540000015603382018581899931_);}
	.st13{clip-path:url(#SVGID_00000061429604570782394120000017480847924316150149_);}
	.st14{clip-path:url(#SVGID_00000153700855027374770150000016076752824276224662_);}
	.st15{clip-path:url(#SVGID_00000008856036379073808710000004916117288178493867_);}
</style>
<g>
	<g>
		<g>
			<g>
				<defs>
					<path id="SVGID_1_" d="M0,9.6c119.3,33.4,238.6-33.4,357.8,0c0,69.6,0,139.2,0,208.7C238.6,185,119.3,251.8,0,218.4
						C0,148.8,0,79.2,0,9.6z"/>
				</defs>
				<clipPath id="SVGID_00000173882981969411823290000013423107876775276444_">
					<use xlink:href="#SVGID_1_"  style="overflow:visible;"/>
				</clipPath>
			</g>
		</g>
	</g>
	<g>
		<g>
			<g>
				<defs>
					<path id="SVGID_00000051378268918794902400000015159324000359803026_" d="M0,9.6c119.3,33.4,238.6-33.4,357.8,0
						c0,69.6,0,139.2,0,208.7C238.6,185,119.3,251.8,0,218.4C0,148.8,0,79.2,0,9.6z"/>
				</defs>
				<clipPath id="SVGID_00000045614692422033346850000011215453060015603102_">
					<use xlink:href="#SVGID_00000051378268918794902400000015159324000359803026_"  style="overflow:visible;"/>
				</clipPath>
				<g style="clip-path:url(#SVGID_00000045614692422033346850000011215453060015603102_);">
					<path class="st1" d="M0,218.4c119.3,33.4,238.6-33.4,357.8,0c0-69.6,0-139.2,0-208.7C238.6-23.8,119.3,43,0,9.6
						C0,79.2,0,148.8,0,218.4z"/>
				</g>
			</g>
			<g>
				<defs>
					<path id="SVGID_00000088814303265625834780000015156368035242455996_" d="M0,9.6c119.3,33.4,238.6-33.4,357.8,0
						c0,69.6,0,139.2,0,208.7C238.6,185,119.3,251.8,0,218.4C0,148.8,0,79.2,0,9.6z"/>
				</defs>
				<clipPath id="SVGID_00000103945690443294244710000006609056670906629523_">
					<use xlink:href="#SVGID_00000088814303265625834780000015156368035242455996_"  style="overflow:visible;"/>
				</clipPath>
				<g style="clip-path:url(#SVGID_00000103945690443294244710000006609056670906629523_);">
					<path class="st3" d="M0,218.4c119.3,33.4,238.6-33.4,357.8,0c0-23.2,0-46.4,0-69.6c-119.3-33.4-238.6,33.4-357.8,0
						C0,172,0,195.2,0,218.4z"/>
				</g>
			</g>
			<g>
				<defs>
					<path id="SVGID_00000017506027067733121930000012543811562929262725_" d="M0,9.6c119.3,33.4,238.6-33.4,357.8,0
						c0,69.6,0,139.2,0,208.7C238.6,185,119.3,251.8,0,218.4C0,148.8,0,79.2,0,9.6z"/>
				</defs>
				<clipPath id="SVGID_00000013153974213692838530000016418041928228227748_">
					<use xlink:href="#SVGID_00000017506027067733121930000012543811562929262725_"  style="overflow:visible;"/>
				</clipPath>
				<g style="clip-path:url(#SVGID_00000013153974213692838530000016418041928228227748_);">
					<path class="st5" d="M0,148.8c119.3,33.4,238.6-33.4,357.8,0c0-23.2,0-46.4,0-69.6C238.6,45.8,119.3,112.6,0,79.2
						C0,102.4,0,125.6,0,148.8z"/>
				</g>
			</g>
			<g>
				<defs>
					<path id="SVGID_00000181789230665571018190000001242976586159003790_" d="M0,9.6c119.3,33.4,238.6-33.4,357.8,0
						c0,69.6,0,139.2,0,208.7C238.6,185,119.3,251.8,0,218.4C0,148.8,0,79.2,0,9.6z"/>
				</defs>
				<clipPath id="SVGID_00000042010568251864986410000017610310767418775427_">
					<use xlink:href="#SVGID_00000181789230665571018190000001242976586159003790_"  style="overflow:visible;"/>
				</clipPath>
				<g style="clip-path:url(#SVGID_00000042010568251864986410000017610310767418775427_);">
					<g>
						<defs>
							<path id="SVGID_00000071546308062634327950000008286292274697728954_" d="M0,9.6c119.3,33.4,238.6-33.4,357.8,0
								c0,69.6,0,139.2,0,208.7C238.6,185,119.3,251.8,0,218.4C0,148.8,0,79.2,0,9.6z"/>
						</defs>
						<clipPath id="SVGID_00000108310200268082910700000015932145368754364554_">
							<use xlink:href="#SVGID_00000071546308062634327950000008286292274697728954_"  style="overflow:visible;"/>
						</clipPath>
						<g style="clip-path:url(#SVGID_00000108310200268082910700000015932145368754364554_);">
							<path class="st3" d="M79.1,59.4c-0.7,0.3-1.3,0.6-1.9,0.9c0.7,10.5,1.3,21,2,31.5c0.6,8.6,4.2,16.7,10.4,22.7
								c4.2,4,9.3,6.8,14.9,8.1l0,0c5.6-2.1,10.7-5.5,14.9-10.1c6.1-6.7,9.8-15.3,10.4-23.9c0.7-10.6,1.3-21.2,2-31.8
								c-0.6-0.2-1.3-0.5-1.9-0.7l0,0c-0.7,10.8-1.4,21.7-2,32.5c-0.5,8.2-4,16.3-9.8,22.6c-3.8,4.2-8.4,7.4-13.5,9.3l0,0
								c-5-1.3-9.7-3.9-13.5-7.5c-5.8-5.6-9.2-13.2-9.8-21.4C80.5,80.9,79.8,70.2,79.1,59.4L79.1,59.4"/>
						</g>
					</g>
					<g>
						<defs>
							<path id="SVGID_00000071525858934365127680000004808423731715053745_" d="M0,9.6c119.3,33.4,238.6-33.4,357.8,0
								c0,69.6,0,139.2,0,208.7C238.6,185,119.3,251.8,0,218.4C0,148.8,0,79.2,0,9.6z"/>
						</defs>
						<clipPath id="SVGID_00000071548844604749625020000015391866832471314084_">
							<use xlink:href="#SVGID_00000071525858934365127680000004808423731715053745_"  style="overflow:visible;"/>
						</clipPath>
						<g style="clip-path:url(#SVGID_00000071548844604749625020000015391866832471314084_);">
							<path class="st5" d="M129.8,56.1c-7.9-2.6-16.5-3.7-25.3-3.1c-8.8,0.6-17.4,2.8-25.4,6.4c0.7,10.8,1.4,21.5,2.1,32.3
								c0.5,8.1,4,15.8,9.8,21.4c3.8,3.7,8.5,6.2,13.5,7.5l0,0c5-2,9.7-5.2,13.5-9.3c5.8-6.3,9.3-14.4,9.8-22.6"/>
						</g>
					</g>
					<g>
						<defs>
							<path id="SVGID_00000031173950335537643600000016013453040588935564_" d="M0,9.6c119.3,33.4,238.6-33.4,357.8,0
								c0,69.6,0,139.2,0,208.7C238.6,185,119.3,251.8,0,218.4C0,148.8,0,79.2,0,9.6z"/>
						</defs>
						<clipPath id="SVGID_00000137133764522204242390000005255979246895820180_">
							<use xlink:href="#SVGID_00000031173950335537643600000016013453040588935564_"  style="overflow:visible;"/>
						</clipPath>
						<g style="clip-path:url(#SVGID_00000137133764522204242390000005255979246895820180_);">
							<path class="st10" d="M106,68.1c0.4-0.5,0.8-1.1,1.2-1.6c-0.6,0.1-1.3,0.2-1.9,0.3c-0.3-0.6-0.5-1.1-0.8-1.7
								c-0.3,0.6-0.5,1.2-0.8,1.8c-0.6,0-1.3-0.1-1.9-0.1c0.4,0.5,0.7,1,1.1,1.5c-0.4,0.5-0.7,1.1-1.1,1.6c0.6-0.1,1.3-0.2,1.9-0.3
								c0.3,0.6,0.5,1.1,0.8,1.7c0.3-0.6,0.5-1.2,0.8-1.8c0.6,0,1.3,0.1,1.9,0.1"/>
						</g>
					</g>
					<g>
						<defs>
							<path id="SVGID_00000110433990801470600870000006511553086849063329_" d="M0,9.6c119.3,33.4,238.6-33.4,357.8,0
								c0,69.6,0,139.2,0,208.7C238.6,185,119.3,251.8,0,218.4C0,148.8,0,79.2,0,9.6z"/>
						</defs>
						<clipPath id="SVGID_00000178197308172158311440000005031886923336775314_">
							<use xlink:href="#SVGID_00000110433990801470600870000006511553086849063329_"  style="overflow:visible;"/>
						</clipPath>
						<g style="clip-path:url(#SVGID_00000178197308172158311440000005031886923336775314_);">
							<path class="st10" d="M98.9,59c0.4-0.5,0.7-1.1,1.1-1.6c-0.6,0.1-1.2,0.2-1.9,0.3c-0.3-0.6-0.5-1.1-0.8-1.7
								c-0.2,0.6-0.5,1.2-0.7,1.8c-0.6,0-1.3-0.1-1.9-0.1c0.4,0.5,0.8,1,1.1,1.5c-0.4,0.5-0.8,1.1-1.1,1.6c0.6-0.1,1.3-0.2,1.9-0.3
								c0.2,0.6,0.5,1.1,0.7,1.7c0.3-0.6,0.5-1.2,0.8-1.8c0.6,0,1.2,0.1,1.9,0.1"/>
						</g>
					</g>
					<g>
						<defs>
							<path id="SVGID_00000080918195563708984160000001912576769814901167_" d="M0,9.6c119.3,33.4,238.6-33.4,357.8,0
								c0,69.6,0,139.2,0,208.7C238.6,185,119.3,251.8,0,218.4C0,148.8,0,79.2,0,9.6z"/>
						</defs>
						<clipPath id="SVGID_00000034069079948562756530000005255063463236631487_">
							<use xlink:href="#SVGID_00000080918195563708984160000001912576769814901167_"  style="overflow:visible;"/>
						</clipPath>
						<g style="clip-path:url(#SVGID_00000034069079948562756530000005255063463236631487_);">
							<path class="st10" d="M113.1,58c0.4-0.5,0.8-1.1,1.2-1.6c-0.6,0.1-1.3,0.2-1.9,0.4c-0.3-0.6-0.5-1.1-0.8-1.7
								c-0.3,0.6-0.5,1.2-0.8,1.8c-0.6,0-1.2,0-1.9-0.1c0.4,0.5,0.8,1,1.1,1.5c-0.4,0.5-0.8,1.1-1.1,1.6c0.6-0.1,1.2-0.3,1.9-0.4
								c0.3,0.6,0.5,1.1,0.8,1.7c0.3-0.6,0.5-1.2,0.8-1.8c0.6,0,1.3,0.1,1.9,0.1"/>
						</g>
					</g>
					<g>
						<defs>
							<path id="SVGID_00000086680402507247074810000006287633950933521301_" d="M0,9.6c119.3,33.4,238.6-33.4,357.8,0
								c0,69.6,0,139.2,0,208.7C238.6,185,119.3,251.8,0,218.4C0,148.8,0,79.2,0,9.6z"/>
						</defs>
						<clipPath id="SVGID_00000158739318253064514520000014530047275294795453_">
							<use xlink:href="#SVGID_00000086680402507247074810000006287633950933521301_"  style="overflow:visible;"/>
						</clipPath>
						<g style="clip-path:url(#SVGID_00000158739318253064514520000014530047275294795453_);">
							<path class="st1" d="M124.9,93.6c-3.4-4.2-6.8-8.4-10.2-12.6c-1.4,1.9-2.7,3.9-4.1,5.8c-2.1-3.9-4.1-7.9-6.2-11.8
								c-2.1,4.2-4.1,8.4-6.1,12.7c-1.4-1.7-2.7-3.5-4.1-5.2c-3.4,4.7-6.8,9.3-10.3,13.9c0,1.8,0.7,3.5,2.1,4.8
								c1.2,1.2,3,1.9,4.8,1.8c1.2,0,2.4-0.4,3.4-1.1l0,0c0.5-0.3,1.1-0.6,1.6-0.8c1.7-0.6,3.6-0.4,5.2,0.4c1,0.5,2.2,0.8,3.4,0.7
								l0,0c1.2-0.1,2.3-0.5,3.4-1.2c1.5-1,3.4-1.4,5.2-1.1c0.6,0.1,1.1,0.3,1.7,0.5l0,0c1,0.5,2.2,0.7,3.4,0.6
								c1.8-0.2,3.6-1.1,4.8-2.5C124.2,97.3,124.9,95.5,124.9,93.6"/>
						</g>
					</g>
					<g>
						<defs>
							<path id="SVGID_00000149376017782499220980000010202605684325941168_" d="M0,9.6c119.3,33.4,238.6-33.4,357.8,0
								c0,69.6,0,139.2,0,208.7C238.6,185,119.3,251.8,0,218.4C0,148.8,0,79.2,0,9.6z"/>
						</defs>
						<clipPath id="SVGID_00000111159632185079417630000008400139723098881198_">
							<use xlink:href="#SVGID_00000149376017782499220980000010202605684325941168_"  style="overflow:visible;"/>
						</clipPath>
						<g style="clip-path:url(#SVGID_00000111159632185079417630000008400139723098881198_);">
							<path class="st1" d="M86.5,103.7c0.4,0.9,1,1.8,1.5,2.7l0,0c1.4,0.6,3.1,0.7,4.6,0.2c0.6-0.2,1.2-0.4,1.7-0.8l0,0
								c1-0.6,2.2-1,3.4-1.1l0,0c1.2-0.1,2.4,0.2,3.4,0.7c1.5,0.8,3.4,0.9,5.2,0.4c0.6-0.2,1.2-0.5,1.7-0.8c0,0,0,0,0,0
								c1-0.7,2.2-1.1,3.4-1.2c0,0,0,0-0.1,0c1.2-0.1,2.4,0.1,3.4,0.6c1.5,0.8,3.4,0.8,5.1,0.2c0.4-0.1,0.8-0.3,1.1-0.5
								c0.6-0.9,1.1-1.9,1.5-2.9l0,0c-0.3,0.2-0.7,0.4-1,0.6l0,0c-0.5,0.3-1.1,0.6-1.7,0.8c-1.7,0.6-3.6,0.5-5.1-0.2
								c-1-0.5-2.2-0.7-3.4-0.6c0,0,0,0,0.1,0c-1.2,0.1-2.4,0.5-3.4,1.2c0,0,0,0,0,0c-0.5,0.3-1.1,0.6-1.7,0.8
								c-1.7,0.6-3.6,0.5-5.2-0.3c-1-0.5-2.2-0.8-3.4-0.7l0,0c-1.2,0.1-2.4,0.5-3.4,1.1l0,0c-0.5,0.3-1.1,0.6-1.7,0.8
								c-1.7,0.5-3.6,0.4-5.2-0.5C87.1,103.9,86.8,103.8,86.5,103.7L86.5,103.7"/>
						</g>
					</g>
					<g>
						<defs>
							<path id="SVGID_00000098187346619441340780000009039833493795725714_" d="M0,9.6c119.3,33.4,238.6-33.4,357.8,0
								c0,69.6,0,139.2,0,208.7C238.6,185,119.3,251.8,0,218.4C0,148.8,0,79.2,0,9.6z"/>
						</defs>
						<clipPath id="SVGID_00000118360397494951266950000005260479958381659281_">
							<use xlink:href="#SVGID_00000098187346619441340780000009039833493795725714_"  style="overflow:visible;"/>
						</clipPath>
						<g style="clip-path:url(#SVGID_00000118360397494951266950000005260479958381659281_);">
							<path class="st1" d="M119.2,106.8c-0.8,1.1-1.7,2.2-2.6,3.2c-3.5,3.7-7.6,6.7-12.2,8.5l0,0c-4.5-1.2-8.7-3.6-12.1-6.9
								c-0.9-0.9-1.8-1.8-2.6-2.8l0,0c1,0.1,1.9,0,2.8-0.2c0.6-0.2,1.2-0.4,1.7-0.8l0,0c1-0.6,2.2-1,3.4-1.1l0,0
								c1.2-0.1,2.4,0.2,3.4,0.7c1.5,0.8,3.4,0.9,5.2,0.3c0.6-0.2,1.2-0.5,1.7-0.8c0,0,0,0,0,0c1-0.7,2.2-1.1,3.4-1.2c0,0,0,0-0.1,0
								c1.2-0.1,2.4,0.1,3.4,0.6C116.1,107.1,117.6,107.2,119.2,106.8L119.2,106.8"/>
						</g>
					</g>
				</g>
			</g>
		</g>
	</g>
	<g>
		<g>
			<g>
				<defs>
					<path id="SVGID_00000031208839513833335820000016569113663321654683_" d="M0,9.6c119.3,33.4,238.6-33.4,357.8,0
						c0,69.6,0,139.2,0,208.7C238.6,185,119.3,251.8,0,218.4C0,148.8,0,79.2,0,9.6z"/>
				</defs>
				<clipPath id="SVGID_00000157271514934850694160000011845203829356732599_">
					<use xlink:href="#SVGID_00000031208839513833335820000016569113663321654683_"  style="overflow:visible;"/>
				</clipPath>
			</g>
		</g>
	</g>
</g>
</svg>
